<svg width="497.915" height="262.915" xmlns="http://www.w3.org/2000/svg">

 <g>
  <title>background</title>
  <rect fill="none" id="canvas_background" height="264.915" width="499.915" y="-1" x="-1"/>
 </g>
 <g>
  <title>Layer 1</title>
  <g transform="rotate(180 248.95748901367188,130.9570007324219) " id="XMLID_391_">
   <path fill="#FFFFFF" d="m234.941,214.111c-15.292,-24.094 -24.284,-52.57 -24.284,-83.152c0,-30.584 8.992,-59.061 24.284,-83.154c12.378,-19.498 28.945,-36.02 48.443,-48.381l-151.851,0c-72.523,-0.001 -131.533,59.009 -131.533,131.534c0,72.522 59.01,131.533 131.533,131.533l151.851,0c-19.498,-12.363 -36.066,-28.882 -48.443,-48.38z" id="XMLID_395_"/>
   <path fill="#FFFFFF" d="m366.381,-0.577c-72.524,0 -131.534,59.01 -131.534,131.535c0,72.522 59.01,131.533 131.534,131.533c72.523,0 131.534,-59.012 131.534,-131.533c0,-72.525 -59.011,-131.535 -131.534,-131.535zm0,214.688c-45.846,0 -83.153,-37.309 -83.153,-83.152c0,-45.846 37.308,-83.154 83.153,-83.154s83.154,37.309 83.154,83.154c0,45.843 -37.308,83.152 -83.154,83.152z" id="XMLID_392_"/>
  </g>
  <g id="svg_1"/>
  <g id="svg_2"/>
  <g id="svg_3"/>
  <g id="svg_4"/>
  <g id="svg_5"/>
  <g id="svg_6"/>
  <g id="svg_7"/>
  <g id="svg_8"/>
  <g id="svg_9"/>
  <g id="svg_10"/>
  <g id="svg_11"/>
  <g id="svg_12"/>
  <g id="svg_13"/>
  <g id="svg_14"/>
  <g id="svg_15"/>
 </g>
</svg>