<svg width="64" height="34" xmlns="http://www.w3.org/2000/svg">
 <g>
  <title>background</title>
  <rect x="-1" y="-1" width="12.666179" height="7.666408" id="canvas_background" fill="none"/>
 </g>

 <g>
  <title>Layer 1</title>
  <g id="svg_1">
   <g id="svg_2">
    <path d="m47,0.000069l-30,0c-9.374,0 -17,7.626 -17,17s7.626,17 17,17l30,0c9.374,0 17,-7.626 17,-17s-7.626,-17 -17,-17zm0,32l-30,0c-8.271,0 -15,-6.729 -15,-15s6.729,-15 15,-15l30,0c8.271,0 15,6.729 15,15s-6.729,15 -15,15z" fill="#FFFFFF" id="svg_3"/>
    <path d="m17,4.000069c-7.168,0 -13,5.832 -13,13s5.832,13 13,13s13,-5.832 13,-13s-5.832,-13 -13,-13zm0,24c-6.065,0 -11,-4.935 -11,-11s4.935,-11 11,-11s11,4.935 11,11s-4.935,11 -11,11z" fill="#FFFFFF" id="svg_4"/>
   </g>
  </g>
  <g id="svg_5"/>
  <g id="svg_6"/>
  <g id="svg_7"/>
  <g id="svg_8"/>
  <g id="svg_9"/>
  <g id="svg_10"/>
  <g id="svg_11"/>
  <g id="svg_12"/>
  <g id="svg_13"/>
  <g id="svg_14"/>
  <g id="svg_15"/>
  <g id="svg_16"/>
  <g id="svg_17"/>
  <g id="svg_18"/>
  <g id="svg_19"/>
  <ellipse ry="12.333328" rx="12.166662" id="svg_22" cy="16.833333" cx="17.250008" stroke-opacity="null" stroke-width="null" stroke="null" fill="#ffffff"/>
 </g>
</svg>