<svg width="486.559" height="257.559" xmlns="http://www.w3.org/2000/svg">
 <g>
  <title>background</title>
  <rect x="-1" y="-1" width="83.093132" height="44.926482" id="canvas_background" fill="none"/>
 </g>

 <g>
  <title>Layer 1</title>
  <g transform="rotate(180 243.2794952392578,129.27899169921878) " id="XMLID_90_">
   <path stroke-width="0" id="XMLID_92_" d="m358.025,0.745l-148.388,0c19.053,12.08 35.243,28.223 47.338,47.275l101.051,0c44.798,0 81.256,36.459 81.256,81.26c0,44.797 -36.458,81.256 -81.256,81.256l-101.051,0c-12.095,19.053 -28.285,35.195 -47.338,47.277l148.389,0c70.868,0 128.533,-57.666 128.533,-128.533c0,-70.871 -57.665,-128.535 -128.534,-128.535z" fill="#FFFFFF"/>
   <path stroke-width="0" id="XMLID_93_" d="m257.068,129.28c0,-70.871 -57.666,-128.535 -128.533,-128.535c-70.87,0 -128.535,57.664 -128.535,128.535c0,70.867 57.665,128.533 128.535,128.533c70.867,0 128.533,-57.666 128.533,-128.533zm-128.533,81.256c-44.8,0 -81.259,-36.459 -81.259,-81.256c0,-44.801 36.459,-81.26 81.259,-81.26c44.798,0 81.256,36.459 81.256,81.26c0,44.797 -36.458,81.256 -81.256,81.256z" fill="#FFFFFF"/>
  </g>
  <g id="svg_1"/>
  <g id="svg_2"/>
  <g id="svg_3"/>
  <g id="svg_4"/>
  <g id="svg_5"/>
  <g id="svg_6"/>
  <g id="svg_7"/>
  <g id="svg_8"/>
  <g id="svg_9"/>
  <g id="svg_10"/>
  <g id="svg_11"/>
  <g id="svg_12"/>
  <g id="svg_13"/>
  <g id="svg_14"/>
  <g id="svg_15"/>
 </g>
</svg>