<svg width="59.99999999999999" height="36" xmlns="http://www.w3.org/2000/svg">

 <g>
  <title>background</title>
  <rect fill="none" id="canvas_background" height="38" width="62" y="-1" x="-1"/>
 </g>
 <g>
  <title>Layer 1</title>
  <path id="svg_1" fill="#FFFFFF" d="m42,0.000548l-24,0c-9.925,0 -18,8.075 -18,18s8.075,18 18,18l24,0c9.925,0 18,-8.075 18,-18s-8.075,-18 -18,-18zm-24,31c-7.168,0 -13,-5.832 -13,-13s5.832,-13 13,-13s13,5.832 13,13s-5.832,13 -13,13zm31.707,-16.293l-8,8c-0.195,0.195 -0.451,0.293 -0.707,0.293s-0.512,-0.098 -0.707,-0.293l-4,-4c-0.391,-0.391 -0.391,-1.023 0,-1.414s1.023,-0.391 1.414,0l3.293,3.293l7.293,-7.293c0.391,-0.391 1.023,-0.391 1.414,0s0.391,1.023 0,1.414z"/>
  <g id="svg_2"/>
  <g id="svg_3"/>
  <g id="svg_4"/>
  <g id="svg_5"/>
  <g id="svg_6"/>
  <g id="svg_7"/>
  <g id="svg_8"/>
  <g id="svg_9"/>
  <g id="svg_10"/>
  <g id="svg_11"/>
  <g id="svg_12"/>
  <g id="svg_13"/>
  <g id="svg_14"/>
  <g id="svg_15"/>
  <g id="svg_16"/>
 </g>
</svg>