<svg width="296.999" height="180.999" xmlns="http://www.w3.org/2000/svg">

 <g>
  <title>background</title>
  <rect fill="none" id="canvas_background" height="182.999" width="298.999" y="-1" x="-1"/>
 </g>
 <g>
  <title>Layer 1</title>
  <g id="svg_1">
   <g id="svg_2">
    <g id="svg_3">
     <path id="svg_4" fill="#FFFFFF" d="m90.061,46.985981c-23.993,0 -43.513,19.52 -43.513,43.513s19.52,43.513 43.513,43.513c23.993,0 43.513,-19.52 43.513,-43.513s-19.52,-43.513 -43.513,-43.513z"/>
     <path id="svg_5" fill="#FFFFFF" d="m206.939,0.438981l-116.878,0c-49.66,0 -90.061,40.4 -90.061,90.06c0,49.66 40.401,90.061 90.061,90.061l116.877,0c49.66,0 90.061,-40.401 90.061,-90.061c0,-49.66 -40.4,-90.06 -90.06,-90.06zm-116.878,146.728c-31.247,0 -56.668,-25.421 -56.668,-56.668s25.421,-56.668 56.668,-56.668c31.247,0 56.668,25.421 56.668,56.668s-25.421,56.668 -56.668,56.668z"/>
    </g>
   </g>
  </g>
  <g id="svg_6"/>
  <g id="svg_7"/>
  <g id="svg_8"/>
  <g id="svg_9"/>
  <g id="svg_10"/>
  <g id="svg_11"/>
  <g id="svg_12"/>
  <g id="svg_13"/>
  <g id="svg_14"/>
  <g id="svg_15"/>
  <g id="svg_16"/>
  <g id="svg_17"/>
  <g id="svg_18"/>
  <g id="svg_19"/>
  <g id="svg_20"/>
 </g>
</svg>