<svg width="612" height="382" xmlns="http://www.w3.org/2000/svg">

 <g>
  <title>background</title>
  <rect fill="none" id="canvas_background" height="384" width="614" y="-1" x="-1"/>
 </g>
 <g>
  <title>Layer 1</title>
  <g id="svg_1">
   <g id="_x33__16_">
    <g id="svg_2">
     <path id="svg_3" fill="#FFFFFF" d="m420.75,0.083261l-229.5,0c-105.627,0 -191.25,85.623 -191.25,191.25c0,105.627 85.623,191.25 191.25,191.25l229.5,0c105.627,0 191.25,-85.623 191.25,-191.25c0,-105.627 -85.623,-191.25 -191.25,-191.25zm0,344.25l-229.5,0c-84.494,0 -153,-68.506 -153,-153s68.506,-153 153,-153l229.5,0c84.494,0 153,68.506 153,153s-68.506,153 -153,153zm-229.5,-267.75c-63.38,0 -114.75,51.37 -114.75,114.75c0,63.38 51.37,114.75 114.75,114.75s114.75,-51.37 114.75,-114.75c0,-63.38 -51.37,-114.75 -114.75,-114.75zm0,191.25c-42.247,0 -76.5,-34.253 -76.5,-76.5s34.253,-76.5 76.5,-76.5s76.5,34.253 76.5,76.5s-34.253,76.5 -76.5,76.5z"/>
    </g>
   </g>
  </g>
  <g id="svg_4"/>
  <g id="svg_5"/>
  <g id="svg_6"/>
  <g id="svg_7"/>
  <g id="svg_8"/>
  <g id="svg_9"/>
  <g id="svg_10"/>
  <g id="svg_11"/>
  <g id="svg_12"/>
  <g id="svg_13"/>
  <g id="svg_14"/>
  <g id="svg_15"/>
  <g id="svg_16"/>
  <g id="svg_17"/>
  <g id="svg_18"/>
 </g>
</svg>