<svg width="60" height="36" xmlns="http://www.w3.org/2000/svg">

 <g>
  <title>background</title>
  <rect fill="none" id="canvas_background" height="38" width="62" y="-1" x="-1"/>
 </g>
 <g>
  <title>Layer 1</title>
  <g id="svg_1">
   <path id="svg_2" fill="#FFFFFF" d="m42,0.002371l-24,0c-9.925,0 -18,8.075 -18,18s8.075,18 18,18l24,0c9.925,0 18,-8.075 18,-18s-8.075,-18 -18,-18zm0,34l-24,0c-8.822,0 -16,-7.178 -16,-16s7.178,-16 16,-16l24,0c8.822,0 16,7.178 16,16s-7.178,16 -16,16z"/>
   <path id="svg_3" fill="#FFFFFF" d="m18,5.002371c-7.168,0 -13,5.832 -13,13s5.832,13 13,13s13,-5.832 13,-13s-5.832,-13 -13,-13zm0,24c-6.065,0 -11,-4.935 -11,-11s4.935,-11 11,-11s11,4.935 11,11s-4.935,11 -11,11z"/>
   <path id="svg_4" fill="#FFFFFF" d="m48.293,13.295371l-7.293,7.293l-3.293,-3.293c-0.391,-0.391 -1.023,-0.391 -1.414,0s-0.391,1.023 0,1.414l4,4c0.195,0.195 0.451,0.293 0.707,0.293s0.512,-0.098 0.707,-0.293l8,-8c0.391,-0.391 0.391,-1.023 0,-1.414s-1.023,-0.391 -1.414,0z"/>
  </g>
  <g id="svg_5"/>
  <g id="svg_6"/>
  <g id="svg_7"/>
  <g id="svg_8"/>
  <g id="svg_9"/>
  <g id="svg_10"/>
  <g id="svg_11"/>
  <g id="svg_12"/>
  <g id="svg_13"/>
  <g id="svg_14"/>
  <g id="svg_15"/>
  <g id="svg_16"/>
  <g id="svg_17"/>
  <g id="svg_18"/>
  <g id="svg_19"/>
 </g>
</svg>