<svg width="64" height="33" xmlns="http://www.w3.org/2000/svg">

 <g>
  <title>background</title>
  <rect fill="none" id="canvas_background" height="35" width="66" y="-1" x="-1"/>
 </g>
 <g>
  <title>Layer 1</title>
  <g id="Switch-to-unlock">
   <path id="svg_1" fill="#FFFFFF" d="m47.2276,9.592752c-0.390602,-0.390598 -1.023502,-0.390598 -1.414101,0c-0.390598,0.3906 -0.390598,1.023501 0,1.414101l3.753911,3.7539l-14.467709,0c-0.552799,0 -1,0.4473 -1,1s0.447201,1 1,1l14.467899,0l-3.754101,3.754898c-0.390598,0.390602 -0.390598,1.023403 0,1.414002c0.195301,0.1954 0.451199,0.292999 0.7071,0.292999c0.25581,0 0.5117,-0.097599 0.707001,-0.292999l5.4609,-5.461901c0.390598,-0.390598 0.390598,-1.023399 0,-1.414l-5.4609,-5.461z"/>
   <path id="svg_2" fill="#FFFFFF" d="m47.5,0.000053l-31,0c-9.097591,0 -16.5,7.4023 -16.5,16.5c0,9.097599 7.402408,16.5 16.5,16.5l31,0c9.097698,0 16.5,-7.402401 16.5,-16.5c0,-9.0977 -7.402302,-16.5 -16.5,-16.5zm0,31l-31,0c-7.995099,0 -14.499999,-6.504902 -14.499999,-14.5c0,-7.995199 6.5049,-14.5 14.499999,-14.5l31,0c7.995201,0 14.5,6.504801 14.5,14.5c0,7.995098 -6.504799,14.5 -14.5,14.5z"/>
   <path id="svg_3" fill="#FFFFFF" d="m18.049801,6.200153c-5.679601,0 -10.299801,4.620199 -10.299801,10.2999c0,5.6796 4.6202,10.299801 10.299801,10.299801c5.679699,0 10.2999,-4.620201 10.2999,-10.299801c0,-5.679701 -4.620201,-10.2999 -10.2999,-10.2999zm0,18.599701c-4.5761,0 -8.2998,-3.723702 -8.2998,-8.299801c0,-4.5762 3.7237,-8.2999 8.2998,-8.2999c4.576198,0 8.2999,3.723699 8.2999,8.2999c0,4.576099 -3.723702,8.299801 -8.2999,8.299801z"/>
  </g>
  <g id="svg_4"/>
  <g id="svg_5"/>
  <g id="svg_6"/>
  <g id="svg_7"/>
  <g id="svg_8"/>
  <g id="svg_9"/>
  <g id="svg_10"/>
  <g id="svg_11"/>
  <g id="svg_12"/>
  <g id="svg_13"/>
  <g id="svg_14"/>
  <g id="svg_15"/>
  <g id="svg_16"/>
  <g id="svg_17"/>
  <g id="svg_18"/>
 </g>
</svg>